<?xml version="1.0" encoding="UTF-8"?>
<svg width="168px" height="34px" viewBox="0 0 168 34" version="1.1" xmlns="http://www.w3.org/2000/svg" xmlns:xlink="http://www.w3.org/1999/xlink">
    <!-- Generator: sketchtool 52.5 (67469) - http://www.bohemiancoding.com/sketch -->
    <title>70E3C7F6-EB33-4438-83A5-9122035317E1</title>
    <desc>Created with sketchtool.</desc>
    <g id="page" stroke="none" stroke-width="1" fill="none" fill-rule="evenodd">
        <g id="Landing-Page-Two-Columns" transform="translate(-388.000000, -55.000000)">
            <g id="logo-secondary-positive" transform="translate(388.000000, 55.000000)">
                <g id="Group-4-Copy-4" transform="translate(54.000000, 10.000000)" fill="#373E4A">
                    <polygon id="Shape" points="10.2507967 0.315894797 13.2432654 0.315894797 13.2432654 16.4265294 11.3968485 16.4265294 11.3968485 16.4265294 2.99246861 5.55824417 2.99246861 16.4265294 0 16.4265294 0 0.379825887 2.41944271 0.379825887 10.2507967 10.3530759"></polygon>
                    <path d="M42.5665554,8.46670123 C42.5030076,12.6045627 39.9610943,16.7424242 34.3688852,16.7424242 C28.776676,16.7424242 26.1712149,12.6682221 26.1712149,8.46670123 C26.1712149,4.26518032 28.8402238,0 34.3688852,0 C39.8975465,0.0636594078 42.6301033,4.26518032 42.5665554,8.46670123 L42.5665554,8.46670123 Z M29.157963,8.53036064 C29.2215108,11.1403964 30.6195631,13.9414103 34.432433,13.9414103 C38.1817551,13.9414103 39.6433552,11.076737 39.6433552,8.46670123 C39.706903,5.79300611 38.1817551,2.73735453 34.432433,2.73735453 C30.6195631,2.80101394 29.0944151,5.79300611 29.157963,8.53036064 L29.157963,8.53036064 Z" id="Shape"></path>
                    <polygon id="Shape" points="58.5739259 0.315894797 58.5739259 13.6135615 66.8469585 13.6135615 66.8469585 16.4265294 55.4955881 16.4265294 55.4955881 0.379825887 58.5739259 0.379825887"></polygon>
                    <path d="M80.7939722,3.075884 L75.675802,3.075884 L75.675802,0.315894797 L88.9190674,0.315894797 L88.9190674,3.075884 L83.8008972,3.075884 L83.8008972,16.4265294 L80.7939722,16.4265294 L80.7939722,3.075884 L80.7939722,3.075884 Z" id="Shape"></path>
                    <path d="M113.513703,16.4265294 L101.531701,16.4265294 L101.531701,0.315894797 L113.513703,0.315894797 L113.513703,3.26844139 L104.527202,3.26844139 L104.527202,6.99121752 L113.195033,6.99121752 L113.195033,9.81539252 L104.527202,9.81539252 L104.527202,13.4739829 L113.513703,13.4739829 L113.513703,16.4265294 L113.513703,16.4265294 Z" id="Shape"></path>
                </g>
                <g id="Group-5" fill="#D00000">
                    <rect id="Rectangle-16" stroke="#979797" stroke-width="0.50955414" opacity="0" x="0.318229173" y="0.318012296" width="33.3738689" height="33.2580564"></rect>
                    <polygon id="Shape" points="23.6739796 6.88631608 23.6739796 11.7807226 11.9670666 0.0569117032 7.17008764 0.0569117032 23.6739796 16.5043939 27.1003932 19.9190961 27.1003932 15.138513 27.1003932 6.88631608"></polygon>
                    <polygon id="Shape" points="33.8390066 31.4152601 33.8390066 0.0569117032 30.4696999 0.0569117032 23.6739796 0.0569117032 23.6739796 3.47161389 30.4696999 3.47161389 30.4696999 28.000558 2.43021555 0.0569117032 0.0317260515 0.0569117032 0.0317260515 0.0569117032 0.0317260515 0.113823406 0.0317260515 1.19514577 0.0317260515 2.44720324 0.0317260515 30.3908495 0.0317260515 33.8055517 3.40103272 33.8055517 10.196753 33.8055517 10.196753 30.3908495 3.40103272 30.3908495 3.40103272 5.86190543 31.4405171 33.8055517 33.8390066 33.8055517 33.8390066 33.8055517 33.8390066 33.74864 33.8390066 33.74864"></polygon>
                    <polygon id="Shape" points="10.196753 17.3580695 6.77033939 13.9433673 6.77033939 18.7239503 6.77033939 26.9761473 10.196753 26.9761473 10.196753 22.0817408 21.903666 33.8055517 26.6435381 33.8055517"></polygon>
                </g>
            </g>
        </g>
    </g>
</svg>