<?xml version="1.0" encoding="UTF-8"?>
<svg width="79px" height="79px" viewBox="0 0 79 79" version="1.1" xmlns="http://www.w3.org/2000/svg" xmlns:xlink="http://www.w3.org/1999/xlink">
    <!-- Generator: sketchtool 52.5 (67469) - http://www.bohemiancoding.com/sketch -->
    <title>4968CD53-14BA-489C-ABD5-AC8C4226012E</title>
    <desc>Created with sketchtool.</desc>
    <g id="page" stroke="none" stroke-width="1" fill="none" fill-rule="evenodd">
        <g id="Landing-Page-Two-Columns" transform="translate(-922.000000, -162.000000)">
            <g id="header" transform="translate(-318.000000, -772.000000)">
                <g id="icon" transform="translate(1243.000000, 937.000000)">
                    <path d="M49.0847152,25.275064 C48.6705168,24.3717875 47.7828315,23.7931938 46.8053136,23.789349 L42.8706687,23.789349 C42.4482261,23.789349 42.1057688,23.4399912 42.1057688,23.0090365 L42.1057688,9.74372361 C42.1065904,9.08280284 41.699224,8.49302121 41.0888522,8.27144019 C40.4784804,8.04985917 39.7974748,8.24453312 39.3888445,8.75740858 L23.2555766,28.9238054 C22.6199125,29.6851521 22.4758354,30.753919 22.886442,31.6620516 C23.2970487,32.5701842 24.1874974,33.1521561 25.1678263,33.1530992 L29.1024711,33.1530992 C29.5249137,33.1530992 29.867371,33.5024571 29.867371,33.9334118 L29.867371,47.1987246 C29.8672817,47.8585495 30.2739691,48.4471322 30.883158,48.6688334 C31.0479456,48.7296032 31.2219489,48.7602447 31.3971707,48.7593497 C31.8574174,48.7598338 32.2934195,48.5489036 32.5842953,48.1850396 L48.7175632,28.0186429 C49.3518278,27.2544508 49.4949807,26.1847274 49.0847152,25.275064 Z" id="Shape" fill="#FFB900" fill-rule="nonzero"></path>
                    <path d="M67.8396552,58.1482759 L33.9198276,58.1482759 L14.537069,72.6853448 L14.537069,58.1482759 L4.84568966,58.1482759 C2.16948916,58.1482759 7.17306163e-16,55.9787867 0,53.3025862 L0,4.84568966 C-3.58653082e-16,2.16948916 2.16948916,7.17306163e-16 4.84568966,0 L67.8396552,0 C70.5158557,0 72.6853448,2.16948916 72.6853448,4.84568966 L72.6853448,53.3025862 C72.6853448,55.9787867 70.5158557,58.1482759 67.8396552,58.1482759 Z" id="Shape" stroke="#FFB900" stroke-width="5.355" stroke-linecap="round" stroke-linejoin="round"></path>
                </g>
            </g>
        </g>
    </g>
</svg>